<svg xmlns="http://www.w3.org/2000/svg" viewBox="0 0 300 300">
  <path fill="#E8E8E8" d="M0 0h300v300H0z"/>
  <g stroke="#AAA">
    <path stroke-opacity=".25" d="M12 0v300M24 0v300M36 0v300M48 0v300M60 0v300"/>
    <path stroke-opacity=".5" d="M72 0v300"/>
    <path stroke-opacity=".25" d="M84 0v300M96 0v300M108 0v300M120 0v300M132 0v300"/>
    <path stroke-opacity=".5" d="M144 0v300"/>
    <path stroke-opacity=".25" d="M156 0v300M168 0v300M180 0v300M192 0v300M204 0v300"/>
    <path stroke-opacity=".5" d="M216 0v300"/>
    <path stroke-opacity=".25" d="M228 0v300M240 0v300M252 0v300M264 0v300M276 0v300"/>
    <path stroke-opacity=".5" d="M288 0v300"/>
    <path stroke-opacity=".25" d="M300 0v300M0 12h300M0 24h300M0 36h300M0 48h300M0 60h300"/>
    <path stroke-opacity=".5" d="M0 72h300"/>
    <path stroke-opacity=".25" d="M0 84h300M0 96h300M0 108h300M0 120h300M0 132h300"/>
    <path stroke-opacity=".5" d="M0 144h300"/>
    <path stroke-opacity=".25" d="M0 156h300M0 168h300M0 180h300M0 192h300M0 204h300"/>
    <path stroke-opacity=".5" d="M0 216h300"/>
    <path stroke-opacity=".25" d="M0 228h300M0 240h300M0 252h300M0 264h300M0 276h300"/>
    <path stroke-opacity=".5" d="M0 288h300"/>
    <path stroke-opacity=".25" d="M0 300h300"/>
  </g>
  <defs>
    <clipPath id="a">
      <path d="M135.937 226.086q8.204 0 14.136 5.933 5.933 5.932 5.933 14.135t-5.933 13.99q-5.932 5.786-14.136 5.786-8.203 0-14.135-5.786-5.933-5.787-5.933-13.99t5.933-14.135q5.932-5.933 14.135-5.933zm7.911-175.781q15.527 0 27.539 4.907 12.011 4.907 19.775 13.11 8.057 8.496 11.939 19.116 3.881 10.621 3.881 23.072 0 27.099-17.285 44.238t-47.461 20.654v32.373H128.76v-55.517q9.228-.733 18.31-3.003 9.082-2.271 16.26-7.398 7.471-5.419 11.646-13.11 4.174-7.69 4.174-21.46 0-21.973-9.301-33.691-9.302-11.719-27.173-11.719-6.739 0-11.792 1.978-5.054 1.977-7.398 3.735.733 3.515 1.978 10.107 1.245 6.592 1.245 10.108 0 5.42-4.688 9.887-4.687 4.468-13.623 4.468-7.91 0-11.279-5.42-3.369-5.42-3.369-12.597 0-5.86 3.223-11.499 3.222-5.64 10.107-10.914 5.859-4.687 15.894-8.056 10.034-3.369 20.874-3.369z"/>
    </clipPath>
    <filter id="b">
      <feGaussianBlur in="SourceAlpha" stdDeviation="2.5"/>
      <feOffset result="offsetblur"/>
      <feFlood flood-color="#BABABA"/>
      <feComposite in2="offsetblur" operator="in"/>
    </filter>
  </defs>
  <path fill="#E8E8E8" d="M0 0h300v300H0V0z"/>
  <g>
    <path fill="#FFF" d="M191.162 68.322q8.057 8.496 11.939 19.116 3.881 10.621 3.881 23.072 0 27.099-17.285 44.238t-47.461 20.654v32.373H128.76v-55.517q9.228-.733 18.31-3.003 9.082-2.271 16.26-7.398 7.471-5.419 11.646-13.11 4.174-7.69 4.174-21.46 0-21.973-9.301-33.691-9.302-11.719-27.173-11.719-6.739 0-11.792 1.978-5.054 1.977-7.398 3.735.733 3.515 1.978 10.107 1.245 6.592 1.245 10.108 0 5.42-4.688 9.887-4.687 4.468-13.623 4.468-7.91 0-11.279-5.42-3.369-5.42-3.369-12.597 0-5.86 3.223-11.499 3.222-5.64 10.107-10.914 5.859-4.687 15.894-8.056 10.034-3.369 20.874-3.369 15.527 0 27.539 4.907 12.011 4.907 19.775 13.11zm-35.156 177.832q0 8.203-5.933 13.99-5.932 5.786-14.136 5.786-8.203 0-14.135-5.786-5.933-5.787-5.933-13.99t5.933-14.135q5.932-5.933 14.135-5.933 8.204 0 14.136 5.933 5.933 5.932 5.933 14.135z"/>
    <g fill="rgba(0,0,0,0.75)">
      <path d="M87.75 44.305h125.232V271.93H87.75zm56.098 6q-10.84 0-20.874 3.369-10.035 3.369-15.894 8.056-6.885 5.274-10.107 10.914-3.223 5.639-3.223 11.499 0 7.177 3.369 12.597t11.279 5.42q8.936 0 13.623-4.468 4.688-4.467 4.688-9.887 0-3.516-1.245-10.108-1.245-6.592-1.978-10.107 2.344-1.758 7.398-3.735 5.053-1.978 11.792-1.978 17.871 0 27.173 11.719 9.301 11.718 9.301 33.691 0 13.77-4.174 21.46-4.175 7.691-11.646 13.11-7.178 5.127-16.26 7.398-9.082 2.27-18.31 3.003v55.517h13.476v-32.373q30.176-3.515 47.461-20.654t17.285-44.238q0-12.451-3.881-23.072-3.882-10.62-11.939-19.116-7.764-8.203-19.775-13.11-12.012-4.907-27.539-4.907zm-7.911 175.781q-8.203 0-14.135 5.933-5.933 5.932-5.933 14.135t5.933 13.99q5.932 5.786 14.135 5.786 8.204 0 14.136-5.786 5.933-5.787 5.933-13.99t-5.933-14.135q-5.932-5.933-14.136-5.933z" clip-path="url(#a)" filter="url(#b)"/>
      <path d="M87.75 45.555h125.232l-1.25-1.25V271.93l1.25-1.25H87.75l1.25 1.25V44.305l-1.25 1.25zm0-2.5c-.69 0-1.25.559-1.25 1.25V271.93c0 .69.56 1.25 1.25 1.25h125.232c.691 0 1.25-.56 1.25-1.25V44.305a1.25 1.25 0 00-1.25-1.25H87.75zm56.098 6c-7.361 0-14.454 1.144-21.272 3.434-6.819 2.289-12.245 5.04-16.277 8.265-4.693 3.595-8.174 7.353-10.412 11.269-2.253 3.944-3.387 7.99-3.387 12.12 0 5.011 1.184 9.439 3.558 13.257 2.49 4.007 6.66 6.01 12.34 6.01 6.255 0 11.105-1.59 14.486-4.813 3.361-3.204 5.075-6.819 5.075-10.792 0-2.437-.424-5.875-1.267-10.34-.831-4.401-1.492-7.777-1.982-10.13l-.474 1.255c1.456-1.092 3.83-2.291 7.103-3.571 3.215-1.259 6.993-1.892 11.337-1.892 11.55 0 20.243 3.749 26.194 11.246 6.004 7.565 9.03 18.526 9.03 32.914 0 8.989-1.353 15.945-4.023 20.864-2.693 4.96-6.449 9.189-11.281 12.695-4.648 3.32-9.924 5.72-15.829 7.196a110.638 110.638 0 01-18.106 2.97 1.25 1.25 0 00-1.151 1.246v55.517c0 .691.559 1.25 1.25 1.25h13.476a1.25 1.25 0 001.25-1.25v-32.373l-1.105 1.242c20.38-2.374 36.461-9.373 48.196-21.008 11.768-11.668 17.655-26.736 17.655-45.126 0-8.444-1.318-16.28-3.957-23.501-2.647-7.242-6.718-13.76-12.206-19.547-5.302-5.602-12.043-10.071-20.21-13.407-8.165-3.336-17.504-5-28.011-5a1.25 1.25 0 00-1.13 1.784v.001l1.13-.535v-1.25zm0 2.5a1.25 1.25 0 001.129-1.785l-1.129.535v1.25c10.196 0 19.216 1.607 27.066 4.814 7.849 3.207 14.291 7.478 19.34 12.813 5.256 5.542 9.144 11.767 11.673 18.686 2.536 6.939 3.805 14.484 3.805 22.642 0 17.742-5.636 32.167-16.915 43.35-11.312 11.216-26.871 17.988-46.725 20.301a1.25 1.25 0 00-1.106 1.241v32.373l1.25-1.25H128.76l1.25 1.25v-55.517l-1.151 1.246a113.17 113.17 0 0018.514-3.036c6.205-1.552 11.769-4.083 16.684-7.593 5.137-3.727 9.144-8.238 12.017-13.532 2.896-5.335 4.326-12.685 4.326-22.056 0-14.908-3.175-26.408-9.572-34.468-6.452-8.128-15.875-12.192-28.152-12.192-4.641 0-8.725.685-12.248 2.063-3.465 1.356-6.022 2.648-7.692 3.9a1.25 1.25 0 00-.473 1.255c.486 2.334 1.144 5.697 1.973 10.084.816 4.325 1.223 7.625 1.223 9.876 0 3.252-1.411 6.229-4.3 8.983-2.869 2.734-7.102 4.122-12.761 4.122-4.866 0-8.216-1.61-10.217-4.83C96.062 92.672 95 88.701 95 84.143c0-3.683 1.015-7.304 3.058-10.879 2.059-3.604 5.316-7.12 9.782-10.541 3.801-3.041 8.971-5.661 15.532-7.864 6.56-2.203 13.384-3.304 20.476-3.304zm-7.911 173.281c-5.802 0-10.831 2.111-15.019 6.299-4.188 4.188-6.299 9.217-6.299 15.019 0 5.807 2.114 10.792 6.31 14.884 4.188 4.085 9.213 6.142 15.008 6.142 5.796 0 10.821-2.057 15.009-6.142 4.196-4.092 6.31-9.077 6.31-14.884 0-5.802-2.111-10.831-6.299-15.019-4.188-4.188-9.217-6.299-15.02-6.299-1.297 0-1.735 1.733-.594 2.35l.594-1.1v-1.25zm0 2.5c1.298 0 1.736-1.733.595-2.35l-.595 1.1v1.25c5.136 0 9.53 1.844 13.252 5.566 3.722 3.723 5.567 8.117 5.567 13.252 0 5.131-1.841 9.472-5.556 13.095-3.722 3.63-8.121 5.431-13.263 5.431-5.141 0-9.54-1.801-13.262-5.431-3.715-3.623-5.556-7.964-5.556-13.095 0-5.135 1.845-9.529 5.567-13.252 3.722-3.722 8.116-5.566 13.251-5.566z" clip-path="url(#a)" filter="url(#b)"/>
    </g>
  </g>
</svg>