<?xml version="1.0" encoding="UTF-8"?>
<!DOCTYPE svg PUBLIC "-//W3C//DTD SVG 1.1//EN" "http://www.w3.org/Graphics/SVG/1.1/DTD/svg11.dtd">
<svg version="1.1" xmlns="http://www.w3.org/2000/svg" xmlns:xlink="http://www.w3.org/1999/xlink" x="0" y="0" width="300" height="300" viewBox="0, 0, 300, 300">
  <g id="Background">
    <rect x="0" y="0" width="300" height="300" fill="#E8E8E8"/>
    <g stroke-width="1px">
      <line x1="12" y1="0" x2="12" y2="300" stroke="#AAAAAA" stroke-opacity="0.25"/>
      <line x1="24" y1="0" x2="24" y2="300" stroke="#AAAAAA" stroke-opacity="0.25"/>
      <line x1="36" y1="0" x2="36" y2="300" stroke="#AAAAAA" stroke-opacity="0.25"/>
      <line x1="48" y1="0" x2="48" y2="300" stroke="#AAAAAA" stroke-opacity="0.25"/>
      <line x1="60" y1="0" x2="60" y2="300" stroke="#AAAAAA" stroke-opacity="0.25"/>
      <line x1="72" y1="0" x2="72" y2="300" stroke="#AAAAAA" stroke-opacity="0.5"/>
      <line x1="84" y1="0" x2="84" y2="300" stroke="#AAAAAA" stroke-opacity="0.25"/>
      <line x1="96" y1="0" x2="96" y2="300" stroke="#AAAAAA" stroke-opacity="0.25"/>
      <line x1="108" y1="0" x2="108" y2="300" stroke="#AAAAAA" stroke-opacity="0.25"/>
      <line x1="120" y1="0" x2="120" y2="300" stroke="#AAAAAA" stroke-opacity="0.25"/>
      <line x1="132" y1="0" x2="132" y2="300" stroke="#AAAAAA" stroke-opacity="0.25"/>
      <line x1="144" y1="0" x2="144" y2="300" stroke="#AAAAAA" stroke-opacity="0.5"/>
      <line x1="156" y1="0" x2="156" y2="300" stroke="#AAAAAA" stroke-opacity="0.25"/>
      <line x1="168" y1="0" x2="168" y2="300" stroke="#AAAAAA" stroke-opacity="0.25"/>
      <line x1="180" y1="0" x2="180" y2="300" stroke="#AAAAAA" stroke-opacity="0.25"/>
      <line x1="192" y1="0" x2="192" y2="300" stroke="#AAAAAA" stroke-opacity="0.25"/>
      <line x1="204" y1="0" x2="204" y2="300" stroke="#AAAAAA" stroke-opacity="0.25"/>
      <line x1="216" y1="0" x2="216" y2="300" stroke="#AAAAAA" stroke-opacity="0.5"/>
      <line x1="228" y1="0" x2="228" y2="300" stroke="#AAAAAA" stroke-opacity="0.25"/>
      <line x1="240" y1="0" x2="240" y2="300" stroke="#AAAAAA" stroke-opacity="0.25"/>
      <line x1="252" y1="0" x2="252" y2="300" stroke="#AAAAAA" stroke-opacity="0.25"/>
      <line x1="264" y1="0" x2="264" y2="300" stroke="#AAAAAA" stroke-opacity="0.25"/>
      <line x1="276" y1="0" x2="276" y2="300" stroke="#AAAAAA" stroke-opacity="0.25"/>
      <line x1="288" y1="0" x2="288" y2="300" stroke="#AAAAAA" stroke-opacity="0.5"/>
      <line x1="300" y1="0" x2="300" y2="300" stroke="#AAAAAA" stroke-opacity="0.25"/>
      <line x1="0" y1="12" x2="300" y2="12" stroke="#AAAAAA" stroke-opacity="0.25"/>
      <line x1="0" y1="24" x2="300" y2="24" stroke="#AAAAAA" stroke-opacity="0.25"/>
      <line x1="0" y1="36" x2="300" y2="36" stroke="#AAAAAA" stroke-opacity="0.25"/>
      <line x1="0" y1="48" x2="300" y2="48" stroke="#AAAAAA" stroke-opacity="0.25"/>
      <line x1="0" y1="60" x2="300" y2="60" stroke="#AAAAAA" stroke-opacity="0.25"/>
      <line x1="0" y1="72" x2="300" y2="72" stroke="#AAAAAA" stroke-opacity="0.5"/>
      <line x1="0" y1="84" x2="300" y2="84" stroke="#AAAAAA" stroke-opacity="0.25"/>
      <line x1="0" y1="96" x2="300" y2="96" stroke="#AAAAAA" stroke-opacity="0.25"/>
      <line x1="0" y1="108" x2="300" y2="108" stroke="#AAAAAA" stroke-opacity="0.25"/>
      <line x1="0" y1="120" x2="300" y2="120" stroke="#AAAAAA" stroke-opacity="0.25"/>
      <line x1="0" y1="132" x2="300" y2="132" stroke="#AAAAAA" stroke-opacity="0.25"/>
      <line x1="0" y1="144" x2="300" y2="144" stroke="#AAAAAA" stroke-opacity="0.5"/>
      <line x1="0" y1="156" x2="300" y2="156" stroke="#AAAAAA" stroke-opacity="0.25"/>
      <line x1="0" y1="168" x2="300" y2="168" stroke="#AAAAAA" stroke-opacity="0.25"/>
      <line x1="0" y1="180" x2="300" y2="180" stroke="#AAAAAA" stroke-opacity="0.25"/>
      <line x1="0" y1="192" x2="300" y2="192" stroke="#AAAAAA" stroke-opacity="0.25"/>
      <line x1="0" y1="204" x2="300" y2="204" stroke="#AAAAAA" stroke-opacity="0.25"/>
      <line x1="0" y1="216" x2="300" y2="216" stroke="#AAAAAA" stroke-opacity="0.5"/>
      <line x1="0" y1="228" x2="300" y2="228" stroke="#AAAAAA" stroke-opacity="0.25"/>
      <line x1="0" y1="240" x2="300" y2="240" stroke="#AAAAAA" stroke-opacity="0.25"/>
      <line x1="0" y1="252" x2="300" y2="252" stroke="#AAAAAA" stroke-opacity="0.25"/>
      <line x1="0" y1="264" x2="300" y2="264" stroke="#AAAAAA" stroke-opacity="0.25"/>
      <line x1="0" y1="276" x2="300" y2="276" stroke="#AAAAAA" stroke-opacity="0.25"/>
      <line x1="0" y1="288" x2="300" y2="288" stroke="#AAAAAA" stroke-opacity="0.5"/>
      <line x1="0" y1="300" x2="300" y2="300" stroke="#AAAAAA" stroke-opacity="0.25"/>
    </g>
  </g>
  <defs>
    <clipPath id="Clip_1">
      <path d="M135.937,226.086 Q144.141,226.086 150.073,232.019 Q156.006,237.951 156.006,246.154 Q156.006,254.357 150.073,260.144 Q144.141,265.93 135.937,265.93 Q127.734,265.93 121.802,260.144 Q115.869,254.357 115.869,246.154 Q115.869,237.951 121.802,232.019 Q127.734,226.086 135.937,226.086 z M143.848,50.305 Q159.375,50.305 171.387,55.212 Q183.398,60.119 191.162,68.322 Q199.219,76.818 203.101,87.438 Q206.982,98.059 206.982,110.51 Q206.982,137.609 189.697,154.748 Q172.412,171.887 142.236,175.402 L142.236,207.775 L128.76,207.775 L128.76,152.258 Q137.988,151.525 147.07,149.255 Q156.152,146.984 163.33,141.857 Q170.801,136.438 174.976,128.747 Q179.15,121.057 179.15,107.287 Q179.15,85.314 169.849,73.596 Q160.547,61.877 142.676,61.877 Q135.937,61.877 130.884,63.855 Q125.83,65.832 123.486,67.59 Q124.219,71.105 125.464,77.697 Q126.709,84.289 126.709,87.805 Q126.709,93.225 122.021,97.692 Q117.334,102.16 108.398,102.16 Q100.488,102.16 97.119,96.74 Q93.75,91.32 93.75,84.143 Q93.75,78.283 96.973,72.644 Q100.195,67.004 107.08,61.73 Q112.939,57.043 122.974,53.674 Q133.008,50.305 143.848,50.305 z"/>
    </clipPath>
    <filter id="Shadow_2">
      <feGaussianBlur in="SourceAlpha" stdDeviation="2.5"/>
      <feOffset dx="0" dy="0" result="offsetblur"/>
      <feFlood flood-color="#BABABA"/>
      <feComposite in2="offsetblur" operator="in"/>
    </filter>
  </defs>
  <g id="Layer_2">
    <path d="M0,0 L300,0 L300,300 L0,300 L0,0 z" fill="#E8E8E8"/>
  </g>
  <g id="Layer_1">
    <g>
      <path d="M191.162,68.322 Q199.219,76.818 203.101,87.438 Q206.982,98.059 206.982,110.51 Q206.982,137.609 189.697,154.748 Q172.412,171.887 142.236,175.402 L142.236,207.775 L128.76,207.775 L128.76,152.258 Q137.988,151.525 147.07,149.255 Q156.152,146.984 163.33,141.857 Q170.801,136.438 174.976,128.747 Q179.15,121.057 179.15,107.287 Q179.15,85.314 169.849,73.596 Q160.547,61.877 142.676,61.877 Q135.937,61.877 130.884,63.855 Q125.83,65.832 123.486,67.59 Q124.219,71.105 125.464,77.697 Q126.709,84.289 126.709,87.805 Q126.709,93.225 122.021,97.692 Q117.334,102.16 108.398,102.16 Q100.488,102.16 97.119,96.74 Q93.75,91.32 93.75,84.143 Q93.75,78.283 96.973,72.644 Q100.195,67.004 107.08,61.73 Q112.939,57.043 122.974,53.674 Q133.008,50.305 143.848,50.305 Q159.375,50.305 171.387,55.212 Q183.398,60.119 191.162,68.322 z M156.006,246.154 Q156.006,254.357 150.073,260.144 Q144.141,265.93 135.937,265.93 Q127.734,265.93 121.802,260.144 Q115.869,254.357 115.869,246.154 Q115.869,237.951 121.802,232.019 Q127.734,226.086 135.937,226.086 Q144.141,226.086 150.073,232.019 Q156.006,237.951 156.006,246.154 z" fill="#FFFFFF"/>
      <g>
        <path d="M87.75,44.305 L212.982,44.305 L212.982,271.93 L87.75,271.93 z M143.848,50.305 Q133.008,50.305 122.974,53.674 Q112.939,57.043 107.08,61.73 Q100.195,67.004 96.973,72.644 Q93.75,78.283 93.75,84.143 Q93.75,91.32 97.119,96.74 Q100.488,102.16 108.398,102.16 Q117.334,102.16 122.021,97.692 Q126.709,93.225 126.709,87.805 Q126.709,84.289 125.464,77.697 Q124.219,71.105 123.486,67.59 Q125.83,65.832 130.884,63.855 Q135.937,61.877 142.676,61.877 Q160.547,61.877 169.849,73.596 Q179.15,85.314 179.15,107.287 Q179.15,121.057 174.976,128.747 Q170.801,136.438 163.33,141.857 Q156.152,146.984 147.07,149.255 Q137.988,151.525 128.76,152.258 L128.76,207.775 L142.236,207.775 L142.236,175.402 Q172.412,171.887 189.697,154.748 Q206.982,137.609 206.982,110.51 Q206.982,98.059 203.101,87.438 Q199.219,76.818 191.162,68.322 Q183.398,60.119 171.387,55.212 Q159.375,50.305 143.848,50.305 z M135.937,226.086 Q127.734,226.086 121.802,232.019 Q115.869,237.951 115.869,246.154 Q115.869,254.357 121.802,260.144 Q127.734,265.93 135.937,265.93 Q144.141,265.93 150.073,260.144 Q156.006,254.357 156.006,246.154 Q156.006,237.951 150.073,232.019 Q144.141,226.086 135.937,226.086 z" fill="rgba(0,0,0,0.75)" clip-path="url(#Clip_1)" filter="url(#Shadow_2)"/>
        <path d="M87.75,45.555 L212.982,45.555 L211.732,44.305 L211.732,271.93 L212.982,270.68 L87.75,270.68 L89,271.93 L89,44.305 L87.75,45.555 z M87.75,43.055 C87.06,43.055 86.5,43.614 86.5,44.305 L86.5,271.93 C86.5,272.62 87.06,273.18 87.75,273.18 L212.982,273.18 C213.673,273.18 214.232,272.62 214.232,271.93 L214.232,44.305 C214.232,43.614 213.673,43.055 212.982,43.055 L87.75,43.055 z M143.848,49.055 C136.487,49.055 129.394,50.199 122.576,52.489 C115.757,54.778 110.331,57.529 106.299,60.754 C101.606,64.349 98.125,68.107 95.887,72.023 C93.634,75.967 92.5,80.013 92.5,84.143 C92.5,89.154 93.684,93.582 96.058,97.4 C98.548,101.407 102.718,103.41 108.398,103.41 C114.653,103.41 119.503,101.82 122.884,98.597 C126.245,95.393 127.959,91.778 127.959,87.805 C127.959,85.368 127.535,81.93 126.692,77.465 C125.861,73.064 125.2,69.688 124.71,67.335 L124.236,68.59 C125.692,67.498 128.066,66.299 131.339,65.019 C134.554,63.76 138.332,63.127 142.676,63.127 C154.226,63.127 162.919,66.876 168.87,74.373 C174.874,81.938 177.9,92.899 177.9,107.287 C177.9,116.276 176.547,123.232 173.877,128.151 C171.184,133.111 167.428,137.34 162.596,140.846 C157.948,144.166 152.672,146.566 146.767,148.042 C140.779,149.539 134.744,150.529 128.661,151.012 C128.011,151.063 127.51,151.606 127.51,152.258 L127.51,207.775 C127.51,208.466 128.069,209.025 128.76,209.025 L142.236,209.025 C142.927,209.025 143.486,208.466 143.486,207.775 L143.486,175.402 L142.381,176.644 C162.761,174.27 178.842,167.271 190.577,155.636 C202.345,143.968 208.232,128.9 208.232,110.51 C208.232,102.066 206.914,94.23 204.275,87.009 C201.628,79.767 197.557,73.249 192.069,67.462 C186.767,61.86 180.026,57.391 171.859,54.055 C163.694,50.719 154.355,49.055 143.848,49.055 C142.93,49.055 142.325,50.01 142.718,50.839 L142.718,50.84 L143.848,50.305 L143.848,49.055 z M143.848,51.555 C144.765,51.555 145.37,50.599 144.977,49.77 L144.977,49.77 L143.848,50.305 L143.848,51.555 C154.044,51.555 163.064,53.162 170.914,56.369 C178.763,59.576 185.205,63.847 190.254,69.182 C195.51,74.724 199.398,80.949 201.927,87.868 C204.463,94.807 205.732,102.352 205.732,110.51 C205.732,128.252 200.096,142.677 188.817,153.86 C177.505,165.076 161.946,171.848 142.092,174.161 C141.462,174.234 140.986,174.768 140.986,175.402 L140.986,207.775 L142.236,206.525 L128.76,206.525 L130.01,207.775 L130.01,152.258 L128.859,153.504 C135.08,153.01 141.252,151.998 147.373,150.468 C153.578,148.916 159.142,146.385 164.057,142.875 C169.194,139.148 173.201,134.637 176.074,129.343 C178.97,124.008 180.4,116.658 180.4,107.287 C180.4,92.379 177.225,80.879 170.828,72.819 C164.376,64.691 154.953,60.627 142.676,60.627 C138.035,60.627 133.951,61.312 130.428,62.69 C126.963,64.046 124.406,65.338 122.736,66.59 C122.348,66.881 122.164,67.37 122.263,67.845 C122.749,70.179 123.407,73.542 124.236,77.929 C125.052,82.254 125.459,85.554 125.459,87.805 C125.459,91.057 124.048,94.034 121.159,96.788 C118.29,99.522 114.057,100.91 108.398,100.91 C103.532,100.91 100.182,99.3 98.181,96.08 C96.062,92.672 95,88.701 95,84.143 C95,80.46 96.015,76.839 98.058,73.264 C100.117,69.66 103.374,66.144 107.84,62.723 C111.641,59.682 116.811,57.062 123.372,54.859 C129.932,52.656 136.756,51.555 143.848,51.555 z M135.937,224.836 C130.135,224.836 125.106,226.947 120.918,231.135 C116.73,235.323 114.619,240.352 114.619,246.154 C114.619,251.961 116.733,256.946 120.929,261.038 C125.117,265.123 130.142,267.18 135.937,267.18 C141.733,267.18 146.758,265.123 150.946,261.038 C155.142,256.946 157.256,251.961 157.256,246.154 C157.256,240.352 155.145,235.323 150.957,231.135 C146.769,226.947 141.74,224.836 135.937,224.836 C134.64,224.836 134.202,226.569 135.343,227.186 L135.343,227.186 L135.937,226.086 L135.937,224.836 z M135.937,227.336 C137.235,227.336 137.673,225.603 136.532,224.986 L136.532,224.986 L135.937,226.086 L135.937,227.336 C141.073,227.336 145.467,229.18 149.189,232.902 C152.911,236.625 154.756,241.019 154.756,246.154 C154.756,251.285 152.915,255.626 149.2,259.249 C145.478,262.879 141.079,264.68 135.937,264.68 C130.796,264.68 126.397,262.879 122.675,259.249 C118.96,255.626 117.119,251.285 117.119,246.154 C117.119,241.019 118.964,236.625 122.686,232.902 C126.408,229.18 130.802,227.336 135.937,227.336 z" fill="rgba(0,0,0,0.75)" clip-path="url(#Clip_1)" filter="url(#Shadow_2)"/>
      </g>
    </g>
  </g>
</svg>
